<?xml version="1.0" encoding="UTF-8"?><svg id="_гр" xmlns="http://www.w3.org/2000/svg" viewBox="0 0 1417.32 1417.32"><defs><style>.cls-1,.cls-2{fill:#ad0a05;}.cls-2{stroke:#cc9553;stroke-miterlimit:10;stroke-width:20.03px;}.cls-3{fill:#cc9553;}.cls-4{fill:none;}.cls-5{fill:#eda020;}</style></defs><circle class="cls-5" cx="708.66" cy="708.66" r="511.91"/><g><path class="cls-3" d="M890.84,1145.37c-35.01-254.84-60.31-269.62-53.08-290.85,5.73-16.85,69.89-48.65,101.25-99.63,10.1-16.43,21.55-97.01,34.52-176.95,1.62-9.97,3.71-19.54-.37-29.33-6.35-15.26-77.73-95.94-96.61-116.36-19.61-21.21-35.73-25.6-50.97-23.05-2.96,.49-5.78-1.51-6.35-4.45-3.49-17.75-13.62-39.58-24.59-47.78-16.91-12.63-60.03-16.69-88.29-25.58-13.71-4.31-57.92-25.51-80.38-16.13-10.04,4.19-29.05,23.92-46.76,37.26-12.61,9.5-30.68,6.43-42.95,8.06-26.97,3.58-49.99,27.05-53.07,54.08-.89,7.84-.27,15.81-1.3,23.63-3.69,28.14-28.14,50.66-22.2,89.47,1.89,12.34,8.42,23.82,9.05,36.29,2.45,48.92-91.35,80.81,45.17,265.37,43.93,59.39,59.65,67.24,66.11,77.47,12.78,20.23-14.57,171.81-33.82,244.18,77.13,55.96,293.03,41.78,344.63-5.71Z"/><g><path class="cls-1" d="M565.52,1159.55c12.65-70.52,23.46-141.37,32.41-212.46,1.59-12.65,3.12-26.21-.83-38.59-6.62-20.75-13.99-4.68-75.38-94.71-51.01-74.81-93.22-141.01-50.73-218.03,10.05-18.22,29.26-53.97,55.18-52.71,126.54,6.16,132.16,31.78,121.3,78.92-16.37,71.1-18.9,85.35-26.98,101.57-21.53-6.48-40.93-8.86-48.98-35.31-11.64-38.27,19.35-59.99,5.63-83.44-.45-.76-1.5-.9-2.12-.27l-19.88,20.4c-11.04,11.33-16.51,2.21-27.14,.57-.6-.09-1.18,.27-1.43,.82-4.48,10.26,9.58,19.98,13.69,24.37,9.71,10.36,12.54,27.36,4.72,39.22-7.41,11.24-21.65,15.53-32.15,23.95-1.12,.9-.24,2.7,1.15,2.34,18.8-4.78,44.37-12.42,48.49,4.68,2.28,9.45-10.3,30.27-16.96,39.46-1.23,1.7,1.35,4.32,7.56-1.46,25.35-23.63,65.45-27.27,104.2,9.47,26.28,24.91,27.54,47.58,21.15,85.82-.23,1.39,1.56,2.15,2.4,1.01,14.34-19.59,15.07-20.36,17.08-24.58,2-4.21,1.61-23.43,.34-31.2-2.09-12.82-21.68-50.63-60.64-69.33,14.67-42,12.14-47.88,15.61-48.96,18.93-5.86,38.96-8.13,58.72-6.66,1.25,.09,2.22,1.11,2.31,2.36,2.32,32.41,35.77,96.37,49.72,82.91,5-4.83,.15-11.57-3.09-15.86-30.71-40.74-32.05-85.47-13.82-116.3,10.62-17.97,34.65-40.83,53.67-55.58,9.36,22.69,23.96,45.18,39.5,63.37,3.03,3.55,6.16,4.72,8.41,.51,5.51-10.3,6.08-10.92,5.86-12.38-.55-3.74-40.57-43.23-24.24-100.73,2.84-10-1.7-13.39-7.71-11.51-3.02,.95-76.04,65.93-125.66-9.68-2.82-4.3-3.1-9.94,2-14.2,22.99-19.17,30-11.35,36.58-2.81,12.2,15.82,12.26,23.94,19.8,18.55,17.57-12.58,9.12-18.66,6.97-27.67-4.77-20.01,21.76-20.41,44.42-31.05,26.41-12.4,39.27-29.13,71.58,11.26,74.63,93.3,74.24,91.79,77.2,98.98,4.87,11.8,3.72,23.57-10.26,96.13-17.09,88.65-16.58,91.31-23.99,103.99-35.14,60.11-95.94,78.3-103.22,93.33-9.45,19.5,24.51,46.9,58.96,300.68-56.54,32.06-181.99,52.08-311.42,10.82Z"/><path class="cls-1" d="M480.35,544.62c.48,.98,1.78,1.2,2.53,.41,8.92-9.5,21.21-16,34.13-18.25,26.74-4.66,90.87,9.89,117.24,17.01,14.36,3.88,24.68,13.52,29.08,33.45,3.15,14.26,.74,45.7-6.5,81.91-.23,1.14,.83,2.12,1.95,1.8,18.41-5.28,37.19-9.29,56.16-12,.65-.09,1.16-.58,1.29-1.21,1.83-8.76,4.79-17.28,8.83-25.27,11.69-23.08,31.39-40.69,51.68-57.01,.84-.67,.76-1.96-.15-2.54-14.36-9.13-33.36-7.53-50.14-11.67-15.95-3.93-29.64-13.48-40.32-25.98-.06-.07-.13-.14-.21-.2-5.08-3.92-9.74-8.39-13.85-13.33-13.36-16.05-13-21.71-45.55-33.22-89.9-31.8-97.77-38.01-110.81-28.68-39.94,28.54-48.62,67.69-35.37,94.79Z"/><path class="cls-1" d="M662.01,478.15c1.56,1.15,3.81,.62,4.58-1.17,5.4-12.54,26.85-15.14,36.49-20.06,6.38-3.26,10.87-9.3,16.75-13.39,.09-.06,.19-.13,.28-.19,.99-.67,1.52-1.86,1.3-3.03-1.22-6.53-5.46-12.65-10.81-16.81-7.48-5.82-16.86-8.45-25.9-11.31-87.6-27.71-108.44-37.39-131.81-38.17-14.65-.49-29.13,4.54-38.62,15.72-9.58,11.29-13.3,34.81-12.46,38.21,1.05,4.27,4.54,5.92,8.9,5.33,10.58-1.42,10.83-7.78,32.71-.6,58.4,19.14,95.61,28.54,118.59,45.46Z"/><path class="cls-1" d="M744.91,433.71c.38,1.04,1.44,1.67,2.54,1.54,5.83-.7,11.72-1.3,17.36-2.57,11.71-2.64,22.28-7.95,32.5-12.92,.67-.33,1.17-.94,1.31-1.68,3.49-18.26-5.69-43.59-14.92-50.76-16.41-12.76-89.85-22.85-125.88-34.36-13.55-4.33-18.42-5.22-30.13,2.05-10.68,6.63-30.72,21.7-23.53,31.98,2.86,4.09,2.67,3.06,80.62,26.42,22.24,6.67,51.51,16.31,60.15,40.3Z"/></g></g><path class="cls-2" d="M708.66,18.16C327.31,18.16,18.16,327.31,18.16,708.66s309.15,690.5,690.5,690.5,690.5-309.15,690.5-690.5S1090.02,18.16,708.66,18.16Zm332.15,1022.65c-88.72,88.72-206.68,137.58-332.15,137.58s-243.43-48.86-332.15-137.58c-88.72-88.72-137.58-206.68-137.58-332.15s48.86-243.43,137.58-332.15c88.72-88.72,206.68-137.58,332.15-137.58s243.43,48.86,332.15,137.58c88.72,88.72,137.58,206.68,137.58,332.15s-48.86,243.43-137.58,332.15Z"/><g><path class="cls-3" d="M441.5,193.3c.6-9.08-1.78-18-7.15-26.76-3.62-5.91-7.94-10.68-12.97-14.32-5.03-3.64-10.58-5.81-16.64-6.51-6.06-.7-12.45,.34-19.15,3.12-1.58,.62-3.19,1.37-4.81,2.26-1.63,.89-2.97,1.66-4.04,2.32l-44.45,27.23,67.36,109.98,15.96-9.78-24.19-39.49,29.21-17.89,43.32,27.77,18.25-11.18-46.87-29.89c3.7-5.17,5.76-10.79,6.16-16.86Zm-31.46,15.86l-27.88,17.07-24.7-40.33,27.88-17.07c1.02-.62,2.18-1.27,3.49-1.93,1.31-.66,2.62-1.18,3.93-1.56,3.73-1.23,7.21-1.43,10.46-.58,3.25,.85,6.12,2.34,8.63,4.48,2.5,2.14,4.58,4.56,6.23,7.26,1.65,2.7,2.87,5.66,3.66,8.89,.79,3.23,.82,6.48,.1,9.76-.72,3.28-2.48,6.3-5.27,9.06-.96,.94-2.04,1.84-3.22,2.71-1.19,.87-2.29,1.61-3.31,2.23Z"/><path class="cls-3" d="M601.69,98.11c-7.21-8.52-15.94-14.35-26.19-17.46-10.25-3.11-21.58-3.02-33.99,.27-12.46,3.31-22.36,8.86-29.68,16.64-7.32,7.78-12.01,17.17-14.06,28.16-2.05,10.99-1.37,22.92,2.05,35.78,3.42,12.87,8.75,23.56,15.98,32.08,7.24,8.52,15.96,14.34,26.19,17.46,10.22,3.12,21.56,3.03,34.03-.28,12.41-3.3,22.29-8.84,29.64-16.63,7.35-7.79,12.04-17.18,14.06-28.16,2.03-10.98,1.33-22.9-2.09-35.77-3.42-12.87-8.73-23.57-15.94-32.09Zm-1.03,63.43c-1.03,7.97-3.95,14.73-8.74,20.3-4.79,5.57-11.62,9.47-20.48,11.7-8.84,2.29-16.75,2.23-23.73-.18-6.97-2.41-12.88-6.79-17.72-13.13-4.84-6.34-8.49-14.29-10.96-23.82-2.47-9.54-3.19-18.3-2.17-26.3,1.03-8,3.94-14.76,8.74-20.3,4.8-5.54,11.63-9.42,20.49-11.65,8.84-2.29,16.72-2.22,23.64,.21,6.91,2.43,12.79,6.81,17.63,13.16,4.84,6.35,8.52,14.28,11.05,23.8,2.53,9.52,3.28,18.27,2.24,26.23Z"/><polygon class="cls-3" points="665.84 78.82 708.74 79.45 707.1 190.77 725.82 191.05 727.46 79.73 770.36 80.36 770.61 62.72 666.1 61.18 665.84 78.82"/><polygon class="cls-3" points="810.49 199.31 889.85 221.5 894.6 204.51 833.27 187.36 844 148.97 894.98 163.23 899.73 146.24 848.75 131.98 858.5 97.13 919.83 114.28 924.58 97.29 845.22 75.1 810.49 199.31"/><path class="cls-3" d="M1065.44,177.69c-2.2-5.7-6.08-10.87-11.64-15.52-1.28-1.11-2.7-2.19-4.24-3.21-1.54-1.03-2.85-1.86-3.93-2.51l-44.74-26.75-66.18,110.7,16.07,9.61,23.76-39.74,29.4,17.58-4.5,51.26,18.37,10.98,4.74-55.39c6.3,.88,12.23,.1,17.79-2.36,8.32-3.68,15.12-9.93,20.39-18.75,3.55-5.94,5.78-11.99,6.67-18.14,.89-6.15,.24-12.07-1.96-17.76Zm-17.55,17.22c-.74,3.21-1.92,6.18-3.54,8.89-1.62,2.72-3.68,5.17-6.18,7.37-2.5,2.2-5.36,3.73-8.6,4.61-3.24,.88-6.73,.72-10.47-.47-1.28-.42-2.58-.95-3.9-1.6-1.32-.65-2.49-1.28-3.51-1.89l-28.06-16.78,24.27-40.59,28.06,16.78c1.02,.61,2.13,1.35,3.33,2.2,1.19,.85,2.26,1.77,3.21,2.75,2.82,2.73,4.61,5.73,5.37,9,.76,3.27,.77,6.51,.03,9.72Z"/></g><g><polygon class="cls-3" points="146.89 533.77 164.52 540.32 180.88 496.34 214.96 509.02 194.85 563.08 212.39 569.61 239.04 498.01 118.16 453.03 111.63 470.57 163.26 489.78 146.89 533.77"/><path class="cls-3" d="M126.9,675.04c6.71,6.15,15.16,9.87,25.35,11.17,6.87,.87,13.3,.49,19.29-1.16,5.99-1.65,11.15-4.62,15.49-8.91,4.34-4.29,7.52-9.92,9.55-16.89,.51-1.62,.92-3.34,1.24-5.17,.32-1.83,.56-3.36,.72-4.6l6.58-51.71-127.94-16.28-2.36,18.57,45.94,5.84-4.32,33.98-48.77,16.42-2.7,21.24,52.65-17.86c1.72,6.12,4.81,11.25,9.29,15.36Zm6.99-30.49c.06-1.47,.17-2.79,.33-3.98l4.13-32.43,46.91,5.97-4.13,32.43c-.15,1.18-.38,2.49-.68,3.93-.3,1.44-.72,2.78-1.24,4.04-1.37,3.68-3.4,6.52-6.1,8.52s-5.66,3.31-8.9,3.92c-3.24,.61-6.43,.72-9.57,.32-3.14-.4-6.21-1.3-9.23-2.71-3.01-1.41-5.57-3.42-7.67-6.03s-3.36-5.88-3.77-9.78c-.13-1.34-.16-2.75-.1-4.21Z"/><path class="cls-3" d="M144.73,849.66c13.19-1.84,24.45-5.83,33.78-11.95,9.33-6.13,16.17-14.09,20.5-23.89,4.33-9.8,5.61-21.06,3.83-33.77-1.78-12.77-6.1-23.27-12.94-31.47-6.84-8.21-15.6-14-26.25-17.36-10.66-3.37-22.58-4.13-35.77-2.29-13.19,1.84-24.45,5.84-33.78,11.99-9.33,6.16-16.16,14.12-20.49,23.89-4.33,9.77-5.61,21.04-3.83,33.81,1.77,12.71,6.09,23.19,12.93,31.43,6.85,8.24,15.6,14.03,26.25,17.36,10.65,3.34,22.58,4.08,35.76,2.24Zm-48.16-31.76c-4.95-5.43-8-12.67-9.14-21.74-1.2-9.06-.19-16.9,3.05-23.53,3.23-6.63,8.29-11.96,15.17-16,6.88-4.04,15.21-6.71,24.97-8.01,9.77-1.3,18.55-.96,26.37,1.02,7.81,1.98,14.18,5.69,19.1,11.12,4.92,5.43,7.95,12.68,9.09,21.75,1.2,9.06,.18,16.87-3.06,23.44-3.24,6.57-8.31,11.88-15.19,15.91-6.88,4.04-15.2,6.73-24.96,8.1-9.76,1.36-18.53,1.05-26.31-.94-7.78-1.99-14.15-5.7-19.1-11.13Z"/><polygon class="cls-3" points="252.26 946.27 164.71 985.25 226.43 888.26 218.7 870.91 100.88 923.37 108.6 940.72 196.23 901.7 134.43 998.73 142.16 1016.08 259.98 963.62 252.26 946.27"/><polygon class="cls-3" points="325.57 1080.16 339.37 1069.17 274.24 987.41 260.44 998.41 287.17 1031.96 200.09 1101.33 211.76 1115.97 298.83 1046.6 325.57 1080.16"/><polygon class="cls-3" points="435.47 1146.6 417.07 1132.32 337.5 1146.77 374.4 1099.22 359.61 1087.74 280.55 1189.65 295.34 1201.12 333.11 1152.43 340.77 1236.37 359.74 1251.08 351.79 1161.37 435.47 1146.6"/><path class="cls-3" d="M402.07,1276.05l17.83,7.74,20.25-22.94,48.55,21.09-2.84,30.5,17.83,7.75,12.95-135-24.73-10.74-89.84,101.59Zm50.3-29.03l44.26-50.12-6.21,66.66-38.05-16.53Z"/><polygon class="cls-3" points="635.75 1314.8 600.8 1212.95 583.99 1210.94 568.73 1339.01 586.25 1341.1 596.7 1253.41 627.69 1346.04 636.14 1347.05 687.95 1264.28 677.51 1351.88 695.12 1353.98 710.37 1226 693.38 1223.98 635.75 1314.8"/><path class="cls-3" d="M842.44,1229.74c-3.28-5.27-7.6-9.38-12.95-12.31-5.35-2.94-11.65-4.39-18.91-4.35-1.7-.02-3.47,.07-5.31,.28-1.84,.21-3.38,.42-4.62,.62l-51.44,8.41,20.82,127.28,18.47-3.02-7.47-45.7,32.97-5.39c1.18-.19,2.69-.5,4.52-.92,1.84-.42,3.56-.88,5.17-1.39,6.89-2.28,12.4-5.66,16.54-10.15,4.14-4.49,6.92-9.75,8.35-15.8,1.43-6.04,1.58-12.51,.46-19.41-1.12-6.83-3.32-12.89-6.6-18.16Zm-12.2,30.86c-.49,3.29-1.69,6.31-3.6,9.07-1.91,2.76-4.68,4.89-8.3,6.39-1.25,.51-2.58,.94-4.01,1.29-1.42,.35-2.73,.63-3.9,.82l-32.26,5.28-7.63-46.67,32.26-5.28c1.18-.19,2.5-.35,3.96-.47,1.46-.12,2.87-.11,4.23,.04,3.92,.27,7.22,1.41,9.91,3.42,2.69,2.01,4.79,4.48,6.29,7.41,1.51,2.93,2.52,5.96,3.03,9.08,.51,3.12,.52,6.33,.03,9.62Z"/><polygon class="cls-3" points="953.1 1223.11 909.65 1240.86 895.9 1207.2 949.29 1185.38 942.21 1168.06 871.49 1196.95 920.26 1316.34 937.59 1309.27 916.76 1258.27 960.21 1240.52 953.1 1223.11"/><polygon class="cls-3" points="1046.05 1235 1023.42 1202.19 1066.99 1172.13 1056.97 1157.61 1013.4 1187.67 992.85 1157.89 1045.27 1121.72 1035.24 1107.2 967.42 1153.99 1040.67 1260.15 1108.49 1213.36 1098.47 1198.83 1046.05 1235"/><path class="cls-3" d="M1169.6,1065.21c-2.05-8.87-6.9-16.72-14.56-23.57-5.17-4.61-10.68-7.94-16.55-9.97-5.87-2.04-11.8-2.51-17.81-1.43-6.01,1.08-11.82,3.92-17.44,8.5-1.34,1.05-2.66,2.23-3.95,3.55-1.3,1.32-2.37,2.45-3.2,3.38l-34.71,38.89,96.21,85.89,12.47-13.96-34.54-30.84,22.81-25.55,49.49,14.1,14.26-15.97-53.5-15.11c2.06-6.02,2.41-11.99,1.04-17.92Zm-20.73,17.64c-.65,1.18-1.42,2.35-2.31,3.52-.88,1.17-1.73,2.2-2.52,3.09l-21.77,24.39-35.28-31.49,21.77-24.39c.79-.89,1.72-1.84,2.79-2.85,1.06-1.01,2.17-1.89,3.31-2.63,3.21-2.25,6.5-3.44,9.85-3.57,3.35-.13,6.54,.48,9.55,1.81,3.01,1.33,5.7,3.05,8.06,5.16,2.36,2.11,4.38,4.59,6.07,7.46,1.69,2.87,2.65,5.97,2.91,9.32s-.56,6.75-2.44,10.19Z"/><path class="cls-3" d="M1268.43,943.64c-6.93-3.62-14.03-4.84-21.29-3.65-5.44,.89-10.42,3.23-14.93,7.03-.18-3.85-1.19-7.57-3.08-11.14-2.88-5.45-7.47-9.82-13.76-13.11-5.19-2.71-10.77-4.05-16.75-4.01-5.98,.04-11.74,1.74-17.28,5.11-5.54,3.37-10.2,8.68-13.99,15.93l-23.49,44.92,114.29,59.77,25.73-49.21c3.79-7.25,5.63-14.15,5.53-20.71-.11-6.56-1.95-12.47-5.53-17.75-3.58-5.27-8.72-9.67-15.44-13.18Zm-69.11,48.66l-31.03-16.23,14.57-27.86c2.6-4.97,6.1-8.19,10.51-9.66,4.41-1.47,8.83-1.04,13.28,1.28,3.33,1.74,5.8,3.96,7.39,6.64,1.59,2.69,2.37,5.58,2.33,8.7-.04,3.11-.87,6.2-2.47,9.27l-14.57,27.86Zm70.58-13.98c-.14,3.74-1.19,7.48-3.15,11.24l-15.61,29.84-36.19-18.93,16.15-30.87c1.99-3.81,4.54-6.71,7.63-8.7,3.09-1.99,6.42-3.01,9.99-3.06,3.57-.06,7.07,.82,10.51,2.62,3.7,1.94,6.44,4.46,8.21,7.58,1.77,3.12,2.59,6.54,2.46,10.28Z"/><path class="cls-3" d="M1324.76,801.64c-6.38-5.9-14.5-9.96-24.35-12.17l-79.52-17.87-4.16,18.53,78.56,17.65c5.3,1.19,9.79,3.13,13.47,5.83,3.68,2.69,6.55,5.86,8.6,9.51,2.06,3.65,3.38,7.51,3.96,11.58,.58,4.08,.43,8.1-.46,12.06-.88,3.9-2.44,7.58-4.68,11.02-2.24,3.44-5.07,6.37-8.49,8.79-3.42,2.41-7.37,4.07-11.85,4.96-4.48,.89-9.41,.73-14.77-.47l-78.56-17.65-4.07,18.55,79.43,17.85c9.9,2.23,18.99,2.03,27.26-.58,8.27-2.61,15.27-7.23,21.02-13.87,5.74-6.63,9.72-14.87,11.93-24.72,2.21-9.84,2.14-18.99-.21-27.45-2.35-8.45-6.72-15.63-13.11-21.53Z"/><polygon class="cls-3" points="1219.85 650.62 1315.56 645.79 1223.05 714.04 1224 733 1352.81 726.51 1351.86 707.55 1256.05 712.38 1348.66 644.13 1347.7 625.16 1218.89 631.65 1219.85 650.62"/><path class="cls-3" d="M1196.91,548.96c.97,3.11,1.64,5.23,2.02,6.36l12.72,38.34,122.41-40.61-12.72-38.34c-.38-1.13-1.1-3.23-2.19-6.31-1.08-3.07-2.29-5.96-3.63-8.66-4.37-9.18-10.46-16.11-18.27-20.79-7.81-4.68-16.62-7.24-26.43-7.7-9.81-.46-19.93,1.04-30.35,4.5-10.37,3.44-19.35,8.28-26.94,14.51-7.59,6.23-13.13,13.56-16.63,21.98-3.5,8.43-4.25,17.63-2.26,27.6,.54,2.97,1.3,6,2.27,9.11Zm18.13-31.12c2.88-5.26,7.08-9.85,12.61-13.76,5.53-3.91,11.89-7.06,19.09-9.45,6.97-2.31,13.85-3.59,20.62-3.82,6.78-.23,12.92,.89,18.43,3.37,5.51,2.48,9.89,6.64,13.15,12.48,1.02,1.93,2.02,4.2,3.02,6.83,1,2.63,1.82,4.9,2.45,6.83l6.68,20.15-88.58,29.39-6.68-20.15c-.62-1.87-1.33-4.16-2.14-6.89-.81-2.72-1.35-5.17-1.63-7.34-.9-6.5,.09-12.38,2.97-17.64Z"/></g><g><circle class="cls-3" cx="468.19" cy="1163.56" r="8.79"/><circle class="cls-3" cx="541.01" cy="1195.22" r="8.79"/></g><line class="cls-4" x1="706.95" y1="708.66" x2="754.64" y2="1286.67"/><line class="cls-4" x1="185.73" y1="316.73" x2="324.98" y2="315.65"/><polygon class="cls-3" points="231.31 269.9 264.34 307.54 314.08 301.67 288.49 344.72 309.44 390.21 260.59 379.17 223.8 413.16 219.2 363.29 175.51 338.8 221.52 319.02 231.31 269.9"/><polygon class="cls-3" points="1186.01 269.9 1152.98 307.54 1103.24 301.67 1128.83 344.72 1107.88 390.21 1156.73 379.17 1193.52 413.16 1198.12 363.29 1241.81 338.8 1195.8 319.02 1186.01 269.9"/></svg>